<?xml version="1.0" encoding="UTF-8"?>
<!DOCTYPE svg PUBLIC "-//W3C//DTD SVG 1.1//EN" "http://www.w3.org/Graphics/SVG/1.1/DTD/svg11.dtd">
<!-- Creator: CorelDRAW 2018 (64-Bit) -->
<svg xmlns="http://www.w3.org/2000/svg" xml:space="preserve" width="2800mm" height="3000mm" version="1.1" style="shape-rendering:geometricPrecision; text-rendering:geometricPrecision; image-rendering:optimizeQuality; fill-rule:evenodd; clip-rule:evenodd"
viewBox="0 0 280000 300000"
 xmlns:xlink="http://www.w3.org/1999/xlink">
 <defs>
  <style type="text/css">
   <![CDATA[
    .fil0 {fill:#FEFEFE}
    .fil1 {fill:#FEFEFE;fill-rule:nonzero}
    .fil2 {fill:#FEFEFE;fill-rule:nonzero}
   ]]>
  </style>
 </defs>
 <g id="Слой_x0020_1">
  <metadata id="CorelCorpID_0Corel-Layer"/>
  <g id="_2250571875328">
   <path class="fil0" d="M135832.81 163757.2c138.31,0 250.83,112.52 250.83,250.83 0,138.31 -112.52,250.83 -250.83,250.83 -138.31,0 -250.83,-112.52 -250.83,-250.83 0,-138.31 112.52,-250.83 250.83,-250.83zm0 468.85c120.21,0 218.02,-97.81 218.02,-218.02 0,-120.21 -97.81,-218.02 -218.02,-218.02 -120.21,0 -218.02,97.81 -218.02,218.02 0,120.21 97.81,218.02 218.02,218.02z"/>
  </g>
  <path class="fil1" d="M135832.81 164233.44c-124.29,0 -225.41,-101.12 -225.41,-225.41 0,-124.29 101.12,-225.41 225.41,-225.41 124.29,0 225.41,101.12 225.41,225.41 0,124.29 -101.12,225.41 -225.41,225.41zm0 -468.85c-134.24,0 -243.44,109.21 -243.44,243.44 0,134.23 109.2,243.44 243.44,243.44 134.23,0 243.44,-109.21 243.44,-243.44 0,-134.23 -109.21,-243.44 -243.44,-243.44z"/>
  <path class="fil2" d="M135934.75 164118.77l-50.97 0 -101.94 0 -50.97 0 0 -159.55 101.94 -101.94 101.94 101.94 0 159.55zm-62.3 0l-79.28 0 79.28 0zm109.95 -143.93l-133.57 -133.58c-8.83,-8.84 -23.2,-8.84 -32.04,0l-133.57 133.58c-4.43,4.42 -4.43,11.59 0,16.01 4.42,4.43 11.6,4.43 16.02,0l8.98 -8.98 0 136.9c0,12.49 10.16,22.65 22.65,22.65l203.88 0c12.5,0 22.66,-10.16 22.66,-22.65l0 -136.9 8.98 8.98c2.21,2.22 5.11,3.32 8.01,3.32 2.9,0 5.8,-1.1 8,-3.32 4.43,-4.42 4.43,-11.59 0,-16.01z"/>
  <path class="fil2" d="M135934.75 164118.77l-50.97 0 -101.94 0 -50.97 0 0 -159.55 101.94 -101.94 101.94 101.94 0 159.55zm-62.3 0l-79.28 0 79.28 0zm109.95 -143.93l-133.57 -133.58c-8.83,-8.84 -23.2,-8.84 -32.04,0l-133.57 133.58c-4.43,4.42 -4.43,11.59 0,16.01 4.42,4.43 11.6,4.43 16.02,0l8.98 -8.98 0 136.9c0,12.49 10.16,22.65 22.65,22.65l203.88 0c12.5,0 22.66,-10.16 22.66,-22.65l0 -136.9 8.98 8.98c2.21,2.22 5.11,3.32 8.01,3.32 2.9,0 5.8,-1.1 8,-3.32 4.43,-4.42 4.43,-11.59 0,-16.01z"/>
 </g>
</svg>
