<svg width="427" height="45" viewBox="0 0 427 45" fill="none" xmlns="http://www.w3.org/2000/svg">
<path d="M43.0957 44H33.6621L29.9121 34.2441H12.7441L9.19922 44H0L16.7285 1.05078H25.8984L43.0957 44ZM27.1289 27.0078L21.2109 11.0703L15.4102 27.0078H27.1289ZM46.7285 32.5449V24.3125H62.9004V32.5449H46.7285ZM67.793 44V1.05078H76.2305L93.8086 29.7324V1.05078H101.865V44H93.1641L75.8496 15.9922V44H67.793ZM149.795 44H140.361L136.611 34.2441H119.443L115.898 44H106.699L123.428 1.05078H132.598L149.795 44ZM133.828 27.0078L127.91 11.0703L122.109 27.0078H133.828ZM160.928 44L145.576 1.05078H154.98L165.85 32.8379L176.367 1.05078H185.566L170.186 44H160.928ZM189.727 44V1.05078H198.398V44H189.727ZM226.67 28.209V20.9727H245.361V38.082C243.545 39.8398 240.908 41.3926 237.451 42.7402C234.014 44.0684 230.527 44.7324 226.992 44.7324C222.5 44.7324 218.584 43.7949 215.244 41.9199C211.904 40.0254 209.395 37.3301 207.715 33.834C206.035 30.3184 205.195 26.5 205.195 22.3789C205.195 17.9062 206.133 13.9316 208.008 10.4551C209.883 6.97852 212.627 4.3125 216.24 2.45703C218.994 1.03125 222.422 0.318359 226.523 0.318359C231.855 0.318359 236.016 1.44141 239.004 3.6875C242.012 5.91406 243.945 9 244.805 12.9453L236.191 14.5566C235.586 12.4473 234.443 10.7871 232.764 9.57617C231.104 8.3457 229.023 7.73047 226.523 7.73047C222.734 7.73047 219.717 8.93164 217.471 11.334C215.244 13.7363 214.131 17.3008 214.131 22.0273C214.131 27.125 215.264 30.9531 217.529 33.5117C219.795 36.0508 222.764 37.3203 226.436 37.3203C228.252 37.3203 230.068 36.9688 231.885 36.2656C233.721 35.543 235.293 34.6738 236.602 33.6582V28.209H226.67ZM292.119 44H282.686L278.936 34.2441H261.768L258.223 44H249.023L265.752 1.05078H274.922L292.119 44ZM276.152 27.0078L270.234 11.0703L264.434 27.0078H276.152ZM301.963 44V8.31641H289.219V1.05078H323.35V8.31641H310.635V44H301.963ZM328.711 44V1.05078H337.383V44H328.711ZM343.916 22.7891C343.916 18.4141 344.57 14.7422 345.879 11.7734C346.855 9.58594 348.184 7.62305 349.863 5.88477C351.562 4.14648 353.418 2.85742 355.43 2.01758C358.105 0.884766 361.191 0.318359 364.688 0.318359C371.016 0.318359 376.074 2.28125 379.863 6.20703C383.672 10.1328 385.576 15.5918 385.576 22.584C385.576 29.5176 383.691 34.9473 379.922 38.873C376.152 42.7793 371.113 44.7324 364.805 44.7324C358.418 44.7324 353.34 42.7891 349.57 38.9023C345.801 34.9961 343.916 29.625 343.916 22.7891ZM352.852 22.4961C352.852 27.3594 353.975 31.0508 356.221 33.5703C358.467 36.0703 361.318 37.3203 364.775 37.3203C368.232 37.3203 371.064 36.0801 373.271 33.5996C375.498 31.0996 376.611 27.3594 376.611 22.3789C376.611 17.457 375.527 13.7852 373.359 11.3633C371.211 8.94141 368.35 7.73047 364.775 7.73047C361.201 7.73047 358.32 8.96094 356.133 11.4219C353.945 13.8633 352.852 17.5547 352.852 22.4961ZM392.461 44V1.05078H400.898L418.477 29.7324V1.05078H426.533V44H417.832L400.518 15.9922V44H392.461Z" fill="white"/>
</svg>
